<svg width="512" height="512" viewBox="0 0 512 512" fill="none" xmlns="http://www.w3.org/2000/svg">
  <!-- Background Circle (Deep Blue Gradient) -->
  <defs>
    <linearGradient id="blue_grad" x1="0" y1="0" x2="512" y2="512" gradientUnits="userSpaceOnUse">
      <stop stop-color="#1E3A8A"/>
      <stop offset="1" stop-color="#3B82F6"/>
    </linearGradient>
    <linearGradient id="wave_grad" x1="256" y1="150" x2="256" y2="400" gradientUnits="userSpaceOnUse">
      <stop stop-color="white" stop-opacity="0.9"/>
      <stop offset="1" stop-color="white" stop-opacity="0.4"/>
    </linearGradient>
  </defs>
  
  <rect width="512" height="512" rx="128" fill="url(#blue_grad)"/>
  
  <!-- Wave / 'A' Symbol -->
  <path d="M120 400C120 400 180 250 256 250C332 250 392 400 392 400" stroke="url(#wave_grad)" stroke-width="40" stroke-linecap="round"/>
  <path d="M160 340C160 340 200 200 256 200C312 200 352 340 352 340" stroke="url(#wave_grad)" stroke-width="30" stroke-linecap="round" stroke-opacity="0.6"/>
  <path d="M200 280C200 280 220 150 256 150C292 150 312 280 312 280" stroke="url(#wave_grad)" stroke-width="20" stroke-linecap="round" stroke-opacity="0.3"/>
  
  <!-- Shield Outline (Subtle) -->
  <path d="M256 60L420 120V260C420 360 350 430 256 460C162 430 92 360 92 260V120L256 60Z" stroke="white" stroke-width="8" stroke-opacity="0.2"/>
</svg>
